<svg width="177" height="49" viewBox="0 0 177 49" fill="none" xmlns="http://www.w3.org/2000/svg">
<path d="M160.5 36.536C159.124 36.536 158.148 36.104 157.572 35.24C156.996 34.408 156.708 33.384 156.708 32.168C156.708 31.176 156.868 30.152 157.188 29.096C157.508 28.04 157.924 27.048 158.436 26.12C158.98 25.192 159.572 24.44 160.212 23.864C160.884 23.288 161.556 23 162.228 23C162.388 23 162.548 23.032 162.708 23.096C162.9 23.128 163.076 23.176 163.236 23.24C162.948 23.496 162.596 23.976 162.18 24.68C161.796 25.352 161.428 26.136 161.076 27.032C160.724 27.896 160.42 28.76 160.164 29.624C159.94 30.488 159.828 31.224 159.828 31.832C159.828 32.792 159.988 33.496 160.308 33.944C160.628 34.36 161.044 34.568 161.556 34.568C162.228 34.568 163.028 34.216 163.956 33.512C164.884 32.776 165.796 31.848 166.692 30.728C165.796 29.992 165.092 29.032 164.58 27.848C164.1 26.632 163.86 25.4 163.86 24.152C163.86 23.096 164.036 22.104 164.388 21.176C164.772 20.248 165.316 19.512 166.02 18.968C166.724 18.392 167.572 18.104 168.564 18.104C169.876 18.104 170.756 18.456 171.204 19.16C171.652 19.864 171.876 20.744 171.876 21.8C171.876 23.048 171.572 24.44 170.964 25.976C170.356 27.48 169.588 28.936 168.66 30.344C169.236 30.664 169.844 30.824 170.484 30.824C170.996 30.824 171.572 30.728 172.212 30.536C172.852 30.312 173.476 29.944 174.084 29.432C174.724 28.92 175.236 28.232 175.62 27.368L176.196 27.848C175.556 29.352 174.644 30.424 173.46 31.064C172.308 31.672 171.204 31.976 170.148 31.976C169.732 31.976 169.332 31.944 168.948 31.88C168.564 31.784 168.196 31.656 167.844 31.496C166.756 32.936 165.556 34.136 164.244 35.096C162.964 36.056 161.716 36.536 160.5 36.536ZM167.556 29.48C168.356 28.296 169.012 27.064 169.524 25.784C170.068 24.472 170.34 23.24 170.34 22.088C170.34 21.16 170.196 20.488 169.908 20.072C169.652 19.624 169.316 19.4 168.9 19.4C168.26 19.4 167.604 19.864 166.932 20.792C166.26 21.72 165.924 22.888 165.924 24.296C165.924 25.224 166.052 26.168 166.308 27.128C166.596 28.056 167.012 28.84 167.556 29.48Z" fill="black"/>
<path d="M146.808 37.688C145.272 37.688 143.992 37.176 142.968 36.152C141.944 35.128 141.432 33.592 141.432 31.544C141.432 29.944 141.736 28.392 142.344 26.888C142.984 25.352 143.816 23.976 144.84 22.76C145.864 21.544 147 20.584 148.248 19.88C149.496 19.144 150.728 18.776 151.944 18.776C153.256 18.776 154.152 19.16 154.632 19.928C155.112 20.696 155.352 21.496 155.352 22.328C155.352 23.256 155.128 24.072 154.68 24.776C154.264 25.48 153.688 25.832 152.952 25.832C152.408 25.832 151.944 25.592 151.56 25.112C152.04 24.856 152.456 24.344 152.808 23.576C153.16 22.776 153.336 22.024 153.336 21.32C153.336 20.936 153.256 20.648 153.096 20.456C152.968 20.232 152.696 20.12 152.28 20.12C151.416 20.12 150.52 20.504 149.592 21.272C148.696 22.04 147.848 23.032 147.048 24.248C146.28 25.464 145.64 26.744 145.128 28.088C144.648 29.432 144.408 30.696 144.408 31.88C144.408 32.872 144.648 33.784 145.128 34.616C145.608 35.448 146.536 35.864 147.912 35.864C149.192 35.864 150.472 35.512 151.752 34.808C153.064 34.104 154.28 33.096 155.4 31.784C156.52 30.472 157.416 28.936 158.088 27.176L158.712 27.656C157.976 29.576 156.968 31.304 155.688 32.84C154.408 34.344 153 35.528 151.464 36.392C149.928 37.256 148.376 37.688 146.808 37.688Z" fill="black"/>
<path d="M134.833 36.488C133.713 36.488 132.897 36.136 132.385 35.432C131.873 34.76 131.617 33.944 131.617 32.984C131.617 32.184 131.729 31.384 131.953 30.584C132.209 29.784 132.449 29 132.673 28.232C132.929 27.464 133.057 26.776 133.057 26.168C133.057 25.528 132.913 25.08 132.625 24.824C132.337 24.568 132.017 24.44 131.665 24.44C130.865 24.44 129.985 25.064 129.025 26.312C128.097 27.56 126.881 29.32 125.377 31.592C124.865 32.36 124.433 33.144 124.081 33.944C123.729 34.712 123.393 35.416 123.073 36.056C122.817 36.056 122.497 36.024 122.113 35.96C121.729 35.896 121.377 35.784 121.057 35.624C120.769 35.496 120.625 35.32 120.625 35.096C120.625 34.872 120.769 34.344 121.057 33.512C121.377 32.648 121.729 31.656 122.113 30.536C122.529 29.384 122.881 28.232 123.169 27.08C123.489 25.896 123.649 24.888 123.649 24.056C123.649 23.512 123.553 23.08 123.361 22.76C123.201 22.408 122.897 22.232 122.449 22.232C121.745 22.232 120.897 22.664 119.905 23.528C118.913 24.36 117.889 25.464 116.833 26.84C115.777 28.216 114.769 29.736 113.809 31.4C112.881 33.032 112.129 34.664 111.553 36.296C111.265 36.296 110.913 36.248 110.497 36.152C110.081 36.056 109.729 35.928 109.441 35.768C109.121 35.608 108.961 35.448 108.961 35.288C108.961 35.096 109.137 34.536 109.489 33.608C109.809 32.648 110.193 31.512 110.641 30.2C111.057 28.856 111.425 27.496 111.745 26.12C112.097 24.744 112.273 23.528 112.273 22.472C112.465 22.248 112.769 22.024 113.185 21.8C113.601 21.576 114.033 21.464 114.481 21.464C114.929 21.464 115.249 21.576 115.441 21.8C115.665 22.024 115.777 22.328 115.777 22.712C115.777 23.128 115.649 23.848 115.393 24.872C115.169 25.864 114.881 26.968 114.529 28.184C115.169 27.16 115.889 26.12 116.689 25.064C117.521 23.976 118.385 22.984 119.281 22.088C120.177 21.192 121.073 20.472 121.969 19.928C122.897 19.352 123.793 19.064 124.657 19.064C125.649 19.064 126.321 19.432 126.673 20.168C127.057 20.872 127.249 21.72 127.249 22.712C127.249 23.512 127.153 24.36 126.961 25.256C126.801 26.12 126.609 26.936 126.385 27.704C126.161 28.44 125.953 29.032 125.761 29.48C126.433 28.264 127.169 27.096 127.969 25.976C128.801 24.824 129.697 23.896 130.657 23.192C131.617 22.456 132.641 22.088 133.729 22.088C134.753 22.088 135.457 22.392 135.841 23C136.257 23.608 136.465 24.328 136.465 25.16C136.465 25.992 136.321 26.904 136.033 27.896C135.745 28.888 135.441 29.848 135.121 30.776C134.833 31.704 134.689 32.504 134.689 33.176C134.689 33.592 134.785 33.976 134.977 34.328C135.201 34.648 135.585 34.808 136.129 34.808C137.025 34.808 137.857 34.408 138.625 33.608C139.425 32.776 140.161 31.784 140.833 30.632C141.505 29.448 142.081 28.312 142.561 27.224L143.137 27.896C142.625 29.24 141.969 30.584 141.169 31.928C140.369 33.24 139.425 34.328 138.337 35.192C137.281 36.056 136.113 36.488 134.833 36.488Z" fill="black"/>
<path d="M92.0383 37.256C91.0463 37.256 90.2143 36.92 89.5423 36.248C88.8383 35.608 88.4863 34.616 88.4863 33.272C88.4863 32.12 88.7423 30.888 89.2543 29.576C89.7663 28.232 90.4703 26.92 91.3663 25.64C92.2623 24.328 93.2703 23.144 94.3903 22.088C95.5423 21 96.7423 20.136 97.9903 19.496C99.2703 18.856 100.534 18.536 101.782 18.536C103.03 18.536 104.07 18.872 104.902 19.544C105.734 20.184 106.15 21.048 106.15 22.136C106.15 22.936 105.926 23.48 105.478 23.768C105.062 24.056 104.502 24.2 103.798 24.2C103.862 23.944 103.91 23.672 103.942 23.384C104.006 23.064 104.038 22.776 104.038 22.52C104.038 21.784 103.862 21.16 103.51 20.648C103.158 20.104 102.55 19.832 101.686 19.832C100.79 19.832 99.8783 20.152 98.9503 20.792C98.0223 21.4 97.1263 22.232 96.2623 23.288C95.3983 24.312 94.6303 25.432 93.9583 26.648C93.2863 27.864 92.7583 29.064 92.3743 30.248C91.9903 31.432 91.7983 32.488 91.7983 33.416C91.7983 34.664 92.2303 35.288 93.0943 35.288C93.8303 35.288 94.6303 34.952 95.4943 34.28C96.3583 33.576 97.2383 32.696 98.1343 31.64C99.0623 30.552 99.9423 29.432 100.774 28.28C101.606 27.128 102.342 26.072 102.982 25.112C103.11 24.92 103.19 24.824 103.222 24.824C103.414 24.856 103.654 24.92 103.942 25.016C104.262 25.112 104.534 25.24 104.758 25.4C104.982 25.56 105.094 25.768 105.094 26.024C105.094 26.312 104.95 26.712 104.662 27.224C104.374 27.704 104.054 28.264 103.702 28.904C103.35 29.544 103.03 30.2 102.742 30.872C102.454 31.512 102.31 32.12 102.31 32.696C102.31 33.176 102.438 33.656 102.694 34.136C102.95 34.584 103.366 34.808 103.942 34.808C104.806 34.808 105.942 34.184 107.35 32.936C108.758 31.656 110.182 29.752 111.622 27.224L112.102 27.704C111.43 29.432 110.566 30.952 109.51 32.264C108.454 33.576 107.318 34.6 106.102 35.336C104.918 36.072 103.75 36.44 102.598 36.44C101.414 36.44 100.534 36.088 99.9583 35.384C99.4143 34.68 99.1423 33.912 99.1423 33.08C99.1423 32.888 99.1583 32.68 99.1903 32.456C99.2223 32.2 99.2543 31.944 99.2863 31.688C97.9103 33.544 96.6463 34.936 95.4943 35.864C94.3743 36.792 93.2223 37.256 92.0383 37.256Z" fill="black"/>
<path d="M72.5612 48.44C71.7612 48.44 71.1532 48.2 70.7372 47.72C70.2892 47.272 70.0652 46.696 70.0652 45.992C70.0652 44.808 70.6412 43.512 71.7932 42.104C72.9132 40.696 74.3532 39.496 76.1132 38.504C76.5612 38.248 77.0412 38.008 77.5532 37.784C78.0332 37.56 78.5772 37.288 79.1852 36.968C79.8252 35.432 80.4172 33.688 80.9612 31.736C81.5052 29.752 81.9852 27.56 82.4012 25.16C81.9212 26.024 81.4732 26.776 81.0572 27.416C80.6732 28.056 80.3692 28.568 80.1452 28.952L79.7132 28.232C80.2572 27.24 80.7372 26.184 81.1532 25.064C81.6012 23.912 82.0172 22.824 82.4012 21.8C82.8172 20.776 83.2332 19.944 83.6492 19.304C84.0652 18.664 84.5132 18.344 84.9932 18.344C85.3452 18.344 85.6172 18.488 85.8092 18.776C86.0332 19.032 86.1452 19.368 86.1452 19.784C86.1452 20.136 86.0492 20.824 85.8572 21.848C85.6972 22.84 85.4412 24.072 85.0892 25.544C84.7692 26.984 84.3692 28.552 83.8892 30.248C83.4092 31.944 82.8812 33.656 82.3052 35.384C83.2332 34.84 84.1612 34.28 85.0892 33.704C86.0172 33.128 86.9452 32.36 87.8732 31.4C88.8332 30.44 89.7612 29.128 90.6572 27.464L91.2812 27.8C90.4812 29.688 89.5212 31.192 88.4012 32.312C87.3132 33.4 86.1932 34.264 85.0412 34.904C83.8892 35.544 82.8172 36.152 81.8252 36.728C81.1212 38.712 80.2892 40.6 79.3292 42.392C78.4012 44.184 77.3772 45.64 76.2572 46.76C75.1052 47.88 73.8732 48.44 72.5612 48.44ZM72.1292 46.808C72.7692 46.808 73.6972 46.104 74.9132 44.696C76.0972 43.32 77.3132 41.256 78.5612 38.504C76.1292 39.688 74.3212 40.92 73.1372 42.2C71.9212 43.48 71.3132 44.632 71.3132 45.656C71.3132 46.072 71.3932 46.36 71.5532 46.52C71.7132 46.712 71.9052 46.808 72.1292 46.808ZM85.7612 14.024C85.2492 14.024 84.8012 13.896 84.4172 13.64C84.0332 13.384 83.8412 13 83.8412 12.488C83.8412 12.008 84.0172 11.576 84.3692 11.192C84.7532 10.808 85.2172 10.504 85.7612 10.28C86.3052 10.056 86.8332 9.94397 87.3452 9.94397C87.7932 9.94397 88.1612 10.056 88.4492 10.28C88.7692 10.504 88.9292 10.84 88.9292 11.288C88.9292 11.992 88.5932 12.632 87.9212 13.208C87.2812 13.752 86.5612 14.024 85.7612 14.024Z" fill="black"/>
<path d="M71.1591 36.248C69.9111 36.248 68.9831 35.848 68.3751 35.048C67.7671 34.28 67.4631 33.336 67.4631 32.216C67.4631 31.48 67.5911 30.552 67.8471 29.432C68.1351 28.312 68.5031 27.144 68.9511 25.928C69.3991 24.68 69.9111 23.512 70.4871 22.424C71.0951 21.336 71.7351 20.456 72.4071 19.784C73.0791 19.08 73.7351 18.728 74.3751 18.728C74.6631 18.728 74.9031 18.824 75.0951 19.016C75.3191 19.176 75.4311 19.432 75.4311 19.784C75.4311 20.168 75.1751 20.792 74.6631 21.656C74.1831 22.52 73.6071 23.512 72.9351 24.632C72.2631 25.752 71.6711 26.936 71.1591 28.184C70.6791 29.4 70.4391 30.568 70.4391 31.688C70.4391 32.84 70.6311 33.608 71.0151 33.992C71.3991 34.376 71.9911 34.568 72.7911 34.568C73.8791 34.568 75.0311 34.024 76.2471 32.936C77.4951 31.848 78.8071 29.944 80.1831 27.224L80.6151 27.704C79.6871 30.456 78.3431 32.568 76.5831 34.04C74.8551 35.512 73.0471 36.248 71.1591 36.248ZM76.9191 14.264C76.4071 14.264 75.9431 14.136 75.5271 13.88C75.1431 13.624 74.9511 13.224 74.9511 12.68C74.9511 12.008 75.3351 11.432 76.1031 10.952C76.9031 10.44 77.6871 10.184 78.4551 10.184C78.9351 10.184 79.3191 10.296 79.6071 10.52C79.8951 10.744 80.0391 11.128 80.0391 11.672C80.0391 12.28 79.7031 12.872 79.0311 13.448C78.3911 13.992 77.6871 14.264 76.9191 14.264Z" fill="black"/>
<path d="M44.4021 39.1759C43.4101 39.1759 42.4661 39.0319 41.5701 38.7439C40.6741 38.4879 39.9061 37.9119 39.2661 37.0159C39.5861 35.4799 39.9701 33.8319 40.4181 32.0719C40.8981 30.2799 41.4101 28.4559 41.9541 26.5999C42.4981 24.7119 43.0421 22.8719 43.5861 21.0799C44.1621 19.2559 44.7061 17.5599 45.2181 15.9919C45.7301 14.4239 46.1941 13.0479 46.6101 11.8639C47.0261 10.6799 47.3461 9.78394 47.5701 9.17594C47.6661 8.91994 47.8261 8.55194 48.0501 8.07194C48.2741 7.55994 48.5461 7.04794 48.8661 6.53594C49.1861 6.02394 49.5541 5.59194 49.9701 5.23994C50.3861 4.85594 50.8341 4.66394 51.3141 4.66394C51.7621 4.66394 52.2101 4.82394 52.6581 5.14394C51.6661 7.44794 50.6581 9.99194 49.6341 12.7759C48.6421 15.5599 47.6821 18.4399 46.7541 21.4159C45.8261 24.3599 44.9781 27.2399 44.2101 30.0559C43.4421 32.8719 42.8021 35.4319 42.2901 37.7359C42.7381 37.7999 43.1061 37.8479 43.3941 37.8799C43.7141 37.9119 44.0341 37.9279 44.3541 37.9279C46.4021 37.9279 48.3701 37.4479 50.2581 36.4879C52.1781 35.5599 53.9541 34.2799 55.5861 32.6479C57.2501 30.9839 58.7061 29.0959 59.9541 26.9839C61.2021 24.8399 62.1621 22.5839 62.8341 20.2159C63.5381 17.8159 63.8901 15.4319 63.8901 13.0639C63.8901 10.4719 63.4741 8.34394 62.6421 6.67994C61.8101 4.98394 60.6581 3.73594 59.1861 2.93594C57.7141 2.13594 56.0021 1.73594 54.0501 1.73594C51.9701 1.73594 50.0981 2.15194 48.4341 2.98394C46.7701 3.81594 45.4581 4.93594 44.4981 6.34394C43.5381 7.75194 43.0581 9.33594 43.0581 11.0959C43.0581 11.4799 43.0741 11.8159 43.1061 12.1039C43.1701 12.3919 43.2341 12.6479 43.2981 12.8719C42.2421 12.8719 41.4901 12.6159 41.0421 12.1039C40.6261 11.5599 40.4181 10.9199 40.4181 10.1839C40.4181 9.06394 40.8021 7.94394 41.5701 6.82394C42.3701 5.67194 43.4581 4.61594 44.8341 3.65594C46.2421 2.69594 47.8581 1.92794 49.6821 1.35194C51.5061 0.743941 53.4421 0.439941 55.4901 0.439941C58.3701 0.439941 60.6741 1.03194 62.4021 2.21594C64.1621 3.36794 65.4421 4.93594 66.2421 6.91994C67.0421 8.90394 67.4421 11.1279 67.4421 13.5919C67.4421 16.3759 67.0101 19.0479 66.1461 21.6079C65.2821 24.1359 64.0821 26.4719 62.5461 28.6159C61.0421 30.7279 59.3141 32.5839 57.3621 34.1839C55.4101 35.7519 53.3141 36.9679 51.0741 37.8319C48.8661 38.7279 46.6421 39.1759 44.4021 39.1759Z" fill="black"/>
<path d="M0.184082 39.1759C0.376082 38.7279 0.904082 37.5439 1.76808 35.6239C2.63208 33.7359 3.75208 31.2719 5.12808 28.2319C6.53608 25.1599 8.10408 21.6879 9.83208 17.8159C11.5921 13.9119 13.4481 9.78394 15.4001 5.43194C15.4961 5.20794 15.5921 4.91994 15.6881 4.56794C15.8161 4.18394 15.8801 3.81594 15.8801 3.46394C15.8801 3.11194 15.7681 2.82394 15.5441 2.59994C15.3521 2.34394 14.9201 2.21594 14.2481 2.21594C12.9041 2.21594 11.7841 2.67994 10.8881 3.60794C10.0241 4.50394 9.36808 5.62394 8.92008 6.96794C8.50408 8.31194 8.29608 9.63994 8.29608 10.9519C8.29608 11.2719 8.29608 11.5439 8.29608 11.7679C8.32808 11.9919 8.36008 12.2159 8.39208 12.4399C7.78408 12.4399 7.28808 12.2319 6.90408 11.8159C6.55208 11.3679 6.28008 10.8399 6.08808 10.2319C5.92808 9.59194 5.84808 9.01594 5.84808 8.50394C5.84808 7.44794 6.13608 6.43994 6.71208 5.47994C7.28808 4.51994 8.02408 3.65594 8.92008 2.88794C9.84808 2.11994 10.8561 1.52794 11.9441 1.11194C13.0641 0.663941 14.1521 0.439941 15.2081 0.439941C16.2641 0.439941 17.1441 0.743941 17.8481 1.35194C18.5841 1.92794 19.1281 2.98394 19.4801 4.51994C19.8641 6.05594 20.0561 8.27994 20.0561 11.1919C20.0561 13.1759 19.9761 15.2879 19.8161 17.5279C19.6881 19.7679 19.5441 21.9759 19.3841 24.1519C19.2241 26.3279 19.1121 28.3119 19.0481 30.1039C19.5601 28.1519 20.2801 26.0719 21.2081 23.8639C22.1681 21.6559 23.2081 19.4639 24.3281 17.2879C25.4801 15.0799 26.6161 13.0159 27.7361 11.0959C28.8561 9.17594 29.8641 7.51194 30.7601 6.10394C31.6561 4.69594 32.3121 3.67194 32.7281 3.03194C33.1761 2.39194 33.5601 1.91194 33.8801 1.59194C34.2001 1.23994 34.6161 1.06394 35.1281 1.06394C35.5761 1.06394 36.0881 1.17594 36.6641 1.39994C36.4401 1.97594 36.1201 2.83994 35.7041 3.99194C35.3201 5.11194 34.9201 6.48794 34.5041 8.11994C33.9921 10.0719 33.4801 12.2959 32.9681 14.7919C32.4561 17.2559 31.9761 19.7679 31.5281 22.3279C31.1121 24.8879 30.7761 27.3039 30.5201 29.5759C30.2641 31.8159 30.1361 33.7039 30.1361 35.2399C30.1361 35.9439 30.1681 36.4879 30.2321 36.8719C30.2961 37.2559 30.3761 37.5919 30.4721 37.8799C30.6001 38.1999 30.7281 38.6319 30.8561 39.1759C29.7681 39.1759 28.9361 38.9999 28.3601 38.6479C27.7841 38.2959 27.4001 37.7199 27.2081 36.9199C27.0161 36.1519 26.9201 35.1119 26.9201 33.7999C26.9201 29.9919 27.4001 25.9119 28.3601 21.5599C29.3521 17.1759 30.4721 12.6319 31.7201 7.92794C30.7921 9.11194 29.8161 10.6159 28.7921 12.4399C27.8001 14.2319 26.7921 16.1839 25.7681 18.2959C24.7761 20.3759 23.8161 22.4719 22.8881 24.5839C21.9921 26.6639 21.1921 28.5999 20.4881 30.3919C19.7841 32.1839 19.2401 33.6719 18.8561 34.8559C18.6641 34.9199 18.5361 34.9679 18.4721 34.9999C18.4081 35.0319 18.2961 35.0479 18.1361 35.0479C17.2721 35.0479 16.6961 34.5359 16.4081 33.5119C16.1521 32.4879 16.0241 31.0479 16.0241 29.1919C16.0241 27.8799 16.0561 26.3279 16.1201 24.5359C16.2161 22.7119 16.3121 20.8399 16.4081 18.9199C16.5041 16.9999 16.5841 15.1599 16.6481 13.3999C16.7441 11.6079 16.7921 10.0719 16.7921 8.79194C16.7921 8.15194 16.7761 7.62394 16.7441 7.20794C16.7441 6.79194 16.7281 6.42394 16.6961 6.10394C14.1361 12.0559 11.9921 17.1439 10.2641 21.3679C8.53608 25.5599 7.08008 28.9679 5.89608 31.5919C4.74408 34.2159 3.72008 36.1359 2.82408 37.3519C1.92808 38.5679 1.04808 39.1759 0.184082 39.1759Z" fill="black"/>
</svg>
